<?xml version="1.0" encoding="UTF-8"?>
<svg width="50px" height="50px" viewBox="0 0 50 50" version="1.1" xmlns="http://www.w3.org/2000/svg" xmlns:xlink="http://www.w3.org/1999/xlink">
    <!-- Generator: Sketch 41.1 (35376) - http://www.bohemiancoding.com/sketch -->
    <title>Geeku</title>
    <desc>Created with Sketch.</desc>
    <defs>
        <radialGradient cx="87.8717959%" cy="100%" fx="87.8717959%" fy="100%" r="125.303892%" id="radialGradient-1">
            <!-- <stop stop-color="#6FD4FF" offset="0%"></stop> -->
            <!-- <stop stop-color="#1C89F5" offset="100%"></stop> -->
            <stop stop-color="#fff" offset="0%"></stop>
            <stop stop-color="#fff" offset="100%"></stop>
        </radialGradient>
    </defs>
    <g id="Page-1" stroke="none" stroke-width="1" fill="none" fill-rule="evenodd">
        <g id="Desktop-Landscape" transform="translate(-615.000000, -75.000000)" fill="url(#radialGradient-1)">
            <path d="M649.189599,124.80951 L645.005815,124.80951 L654.224989,110.613227 L654.224989,116.751201 L649.189599,124.80951 Z M650.676902,124.80951 L654.224989,124.80951 L654.224989,119.131383 L650.676902,124.80951 Z M661.696886,96.7916607 L658.155602,96.7916607 L652.0906,106.130944 L654.224989,106.130944 L654.224989,108.297373 L644.885706,122.678608 L644.885706,117.225508 L652.0906,106.130944 L655.631885,106.130944 L661.696886,96.7916607 Z M663.200819,96.7916607 L665,96.7916607 L658.583321,106.130944 L657.135818,106.130944 L663.200819,96.7916607 Z M644.885706,122.678608 L644.885706,117.225508 L639.960597,124.80951 L643.501882,124.80951 L644.885706,122.678608 Z M638.482592,124.769585 C637.174162,124.695924 635.892726,124.521261 634.645957,124.253265 L639.904755,116.155427 L639.904755,122.579646 L638.482594,124.769582 Z M656.651669,96.7916607 L652.479732,96.7916607 L644.885706,108.485435 L644.885706,114.909654 L650.586667,106.130944 L646.41473,106.130944 L646.41473,106.130944 L650.586667,106.130944 L656.651669,96.7916607 Z M644.521666,115.470227 L640.349729,115.470227 L639.904755,116.155427 L639.904755,122.579646 L644.521666,115.470227 Z M633.34729,123.937184 C632.354341,123.666884 631.386078,123.336691 630.44662,122.950723 L635.681082,114.890359 C636.704515,115.178228 637.770667,115.364078 638.867868,115.436239 L633.34729,123.937184 Z M650.975799,96.7916607 L647.434514,96.7916607 L641.369513,106.130944 L644.910797,106.130944 L644.910797,106.130944 L644.885706,106.130944 L644.885706,106.169581 L644.910797,106.130944 Z M629.277705,122.434841 C620.838628,118.447283 615,109.857861 615,99.904755 C615,86.1502386 626.150239,75 639.904755,75 L639.904755,84.3392831 C631.308182,84.3392831 624.339283,91.3081823 624.339283,99.904755 C624.339283,106.578706 628.539575,112.271626 634.440885,114.484241 L629.277705,122.434841 Z M645.930581,96.7916607 L639.904755,96.7916607 L633.745629,106.130944 L639.86558,106.130944 L645.930581,96.7916607 Z M639.904755,75 L658.583321,75 L652.578935,84.3392831 L639.904755,84.3392831 L639.904755,75 Z" id="Combined-Shape"></path>
        </g>
    </g>
</svg>
